simulation
nRows=24
nColumns=15
endheader
time  TH_x TH_y TH_z SC_y  SC_z  SC_x  AC_y  AC_z  AC_x  GH_y  GH_z  GH_yy  EL_x  PS_y
0.137135  0.000000  0.000000  0.000000  -14.734947  -8.510892  4.869526  45.809130  2.850337  -14.243746  -22.406030  15.392513  18.121058  14.330307  0.000000
0.138950  0.000000  0.000000  0.000000  -14.549640  -8.748171  4.903404  45.803181  2.693776  -14.435409  -22.527293  15.609620  18.210982  14.447359  0.000000
0.140764  0.000000  0.000000  0.000000  -14.366889  -8.985695  4.930044  45.795728  2.542041  -14.620693  -22.638381  15.826368  18.293989  14.562739  0.000000
0.141732  0.000000  0.000000  0.000000  -14.270546  -9.112559  4.941314  45.791192  2.463116  -14.716958  -22.693500  15.941839  18.335455  14.623624  0.000000
0.142036  0.000000  0.000000  0.000000  -14.240546  -9.152319  4.944426  45.789698  2.438687  -14.746743  -22.710172  15.977981  18.348039  14.642599  0.000000
0.142339  0.000000  0.000000  0.000000  -14.210635  -9.192088  4.947338  45.788170  2.414401  -14.776352  -22.726560  16.014109  18.360429  14.661528  0.000000
0.142642  0.000000  0.000000  0.000000  -14.180814  -9.231866  4.950053  45.786609  2.390256  -14.805784  -22.742665  16.050221  18.372625  14.680411  0.000000
0.142946  0.000000  0.000000  0.000000  -14.151085  -9.271655  4.952569  45.785015  2.366255  -14.835041  -22.758487  16.086318  18.384628  14.699247  0.000000
0.143249  0.000000  0.000000  0.000000  -14.121450  -9.311453  4.954888  45.783391  2.342396  -14.864121  -22.774025  16.122399  18.396436  14.718037  0.000000
0.143658  0.000000  0.000000  0.000000  -14.081597  -9.365192  4.957705  45.781150  2.310417  -14.903098  -22.794550  16.171079  18.412069  14.743328  0.000000
0.144068  0.000000  0.000000  0.000000  -14.041923  -9.418949  4.960165  45.778857  2.278700  -14.941756  -22.814560  16.219728  18.427347  14.768534  0.000000
0.144477  0.000000  0.000000  0.000000  -14.002429  -9.472726  4.962269  45.776512  2.247245  -14.980097  -22.834054  16.268347  18.442271  14.793657  0.000000
0.144887  0.000000  0.000000  0.000000  -13.963121  -9.526522  4.964019  45.774120  2.216052  -15.018121  -22.853033  16.316936  18.456841  14.818695  0.000000
0.145296  0.000000  0.000000  0.000000  -13.924003  -9.580339  4.965416  45.771680  2.185121  -15.055828  -22.871498  16.365492  18.471056  14.843650  0.000000
0.145835  0.000000  0.000000  0.000000  -13.872800  -9.651217  4.966720  45.768402  2.144801  -15.104988  -22.895022  16.429366  18.489229  14.876373  0.000000
0.146374  0.000000  0.000000  0.000000  -13.821941  -9.722130  4.967420  45.765053  2.104936  -15.153605  -22.917657  16.493184  18.506786  14.908952  0.000000
0.146913  0.000000  0.000000  0.000000  -13.771434  -9.793081  4.967520  45.761637  2.065523  -15.201680  -22.939403  16.556946  18.523727  14.941386  0.000000
0.147452  0.000000  0.000000  0.000000  -13.721286  -9.864070  4.967025  45.758161  2.026561  -15.249217  -22.960262  16.620652  18.540052  14.973676  0.000000
0.147991  0.000000  0.000000  0.000000  -13.671507  -9.935097  4.965939  45.754628  1.988048  -15.296219  -22.980236  16.684302  18.555761  15.005822  0.000000
0.148530  0.000000  0.000000  0.000000  -13.622105  -10.006162  4.964268  45.751045  1.949983  -15.342688  -22.999327  16.747896  18.570854  15.037825  0.000000
0.149152  0.000000  0.000000  0.000000  -13.565596  -10.088187  4.961619  45.746856  1.906625  -15.395632  -23.020255  16.821184  18.587499  15.074562  0.000000
0.149773  0.000000  0.000000  0.000000  -13.509612  -10.170264  4.958207  45.742614  1.863854  -15.447876  -23.040014  16.894399  18.603325  15.111110  0.000000
0.150395  0.000000  0.000000  0.000000  -13.454164  -10.252395  4.954039  45.738327  1.821664  -15.499424  -23.058609  16.967542  18.618334  15.147469  0.000000
0.151017  0.000000  0.000000  0.000000  -13.399264  -10.334581  4.949125  45.734003  1.780050  -15.550280  -23.076043  17.040614  18.632526  15.183638  0.000000
